<svg version="1.0" xmlns="http://www.w3.org/2000/svg" preserveAspectRatio="xMidYMid meet"
     viewBox="219.02 260.63 316.98 46.4">

    <g transform="translate(0.000000,317.000000) scale(0.100000,-0.100000)" fill="#5ca300" stroke="none">
        <path d="M3530 562 c-75 -2 -109 -7 -121 -18 -14 -13 -18 -13 -29 1 -15 19 -130 21 -148 3 -9 -9 -12 -9 -12 0 0 19 -114 16 -131 -4 -11 -14 -13 -14 -21 0 -7 12 -25 16 -68 16 -69 0 -90 -6 -90 -28 0 -12 -5 -11 -23 6 -21 20 -34 22 -134 22 -88 0 -115 -3 -127 -16 -9 -8 -16 -20 -16 -27 0 -6 -13 1 -28 16 l-28 27 -160 0 c-210 0 -198 12 -203 -196 -2 -85 0 -165 3 -178 3 -14 20 -38 37 -55 l31 -31 172 0 c117 0 176 4 184 12 8 8 15 8 24 0 18 -14 437 -15 454 -1 8 7 14 7 18 0 4 -6 63 -10 144 -10 106 0 140 3 153 15 14 13 18 13 29 -1 14 -17 147 -21 213 -6 21 5 39 5 43 0 3 -5 43 -9 89 -9 75 0 85 2 99 22 9 13 16 43 16 71 0 43 2 48 15 37 8 -7 15 -29 15 -49 0 -60 32 -81 124 -81 72 0 76 1 82 25 3 14 3 36 0 49 -4 17 -1 26 10 30 23 9 24 8 24 -18 0 -13 12 -38 27 -55 26 -30 30 -31 108 -31 45 0 86 5 92 11 8 8 13 8 17 0 9 -14 169 -14 183 0 8 8 13 8 17 0 5 -7 45 -11 105 -11 76 0 101 3 111 15 12 14 15 14 30 0 13 -12 42 -15 129 -15 62 0 121 5 133 11 14 8 23 8 31 0 6 -6 47 -11 93 -11 74 0 84 2 98 22 21 29 21 109 0 178 -14 49 -14 54 0 62 12 7 16 25 16 73 0 58 -3 66 -31 94 -29 29 -35 31 -109 31 -57 0 -81 -4 -90 -15 -12 -14 -15 -14 -30 0 -19 18 -110 21 -127 4 -8 -8 -13 -8 -17 0 -11 17 -121 14 -136 -4 -10 -12 -15 -12 -35 1 -17 11 -45 14 -111 12 -80 -3 -90 -5 -100 -25 l-11 -23 -23 25 c-20 21 -32 25 -86 25 -53 0 -65 -3 -78 -22 l-16 -22 -22 22 c-21 19 -34 21 -163 21 -85 0 -144 -4 -152 -11 -9 -7 -13 -7 -13 1 0 7 -25 11 -70 11 -55 0 -71 -3 -79 -17 -9 -16 -11 -16 -28 -2 -21 19 -133 26 -303 21z m-965 -26 c14 -10 19 -27 19 -62 l1 -49 -70 -3 c-38 -2 -74 -7 -79 -12 -13 -13 38 -24 81 -17 50 9 73 -6 73 -47 0 -45 -14 -54 -90 -58 -39 -2 -63 -7 -60 -13 5 -10 25 -12 108 -14 l42 -1 0 -50 c0 -38 -4 -52 -19 -60 -30 -16 -323 -13 -346 3 -16 13 -18 30 -18 186 1 225 -12 211 188 211 112 0 156 -4 170 -14z m301 -1 c30 -20 43 -155 19 -192 -13 -19 -14 -31 -6 -51 13 -35 30 -135 24 -144 -2 -5 -31 -8 -63 -8 -63 0 -60 -3 -77 70 l-8 35 -5 -50 -5 -50 -60 0 -60 0 -3 187 c-2 159 0 188 13 202 22 22 201 23 231 1z m197 -110 c4 -66 6 -156 5 -200 l-3 -80 -70 0 -70 0 -3 190 c-1 104 0 195 3 203 3 9 22 12 67 10 l63 -3 8 -120z m151 109 c3 -9 6 -34 6 -56 0 -54 13 -40 20 20 l5 47 64 3 64 3 -7 -62 c-4 -34 -14 -80 -23 -102 -13 -31 -14 -44 -5 -58 15 -23 36 -155 28 -175 -8 -21 -120 -16 -123 6 -1 8 -5 33 -9 55 l-8 40 -6 -55 -5 -55 -54 -3 c-30 -2 -58 1 -63 6 -14 14 -10 372 4 389 16 19 104 17 112 -3z m611 -4 c11 -12 20 -41 23 -73 l4 -53 -92 -26 c-71 -21 -96 -24 -110 -16 -25 16 -50 3 -50 -27 0 -21 5 -25 30 -25 20 0 30 5 30 15 0 13 15 15 98 13 l97 -3 -1 -83 c-1 -49 -7 -88 -14 -97 -15 -18 -141 -21 -169 -3 -14 8 -29 8 -64 0 -66 -17 -158 -15 -185 4 -21 15 -22 21 -22 186 0 145 3 174 17 190 14 16 35 18 203 18 175 0 188 -1 205 -20z m175 1 c5 -11 10 -49 10 -85 0 -95 19 -81 22 17 l3 82 65 0 65 0 -3 -119 c-4 -133 -11 -161 -46 -178 -21 -9 -26 -19 -28 -57 l-3 -46 -70 0 -70 0 0 42 c0 35 -5 47 -29 67 -26 20 -31 32 -37 92 -10 87 -11 189 -2 197 3 4 30 7 59 7 42 0 55 -4 64 -19z m320 4 c10 -12 11 -44 7 -124 -5 -103 -4 -109 14 -114 18 -5 20 -13 17 -79 l-3 -73 -75 -3 c-62 -2 -77 0 -87 14 -18 24 -18 365 -1 382 18 18 113 15 128 -3z m200 0 c8 -10 10 -44 5 -123 -7 -106 -7 -109 14 -115 20 -5 22 -11 19 -79 l-3 -73 -73 -3 c-46 -2 -79 2 -88 9 -11 9 -14 50 -14 199 0 102 3 190 7 193 13 14 120 7 133 -8z m265 -9 c10 -15 15 -40 13 -63 -3 -37 -4 -38 -45 -41 -24 -2 -43 -7 -43 -12 0 -5 19 -10 43 -12 l42 -3 0 -50 0 -50 -42 -3 c-29 -2 -43 -8 -43 -18 0 -10 12 -14 45 -14 l45 0 0 -48 c0 -26 -5 -53 -12 -60 -8 -8 -45 -12 -100 -12 -122 0 -122 -1 -116 214 2 117 7 168 17 180 10 12 32 16 97 16 77 0 85 -2 99 -24z m163 -108 c2 -110 5 -128 19 -128 14 0 15 13 9 116 -6 84 -4 119 4 130 15 18 94 19 108 1 6 -7 12 -85 13 -191 4 -217 12 -206 -140 -206 -148 0 -141 -10 -141 210 0 127 3 179 12 188 8 8 33 12 63 10 l50 -3 3 -127z m349 124 c7 -5 16 -36 19 -71 7 -58 5 -62 -15 -68 -26 -7 -25 -3 0 -83 24 -77 19 -154 -11 -170 -26 -14 -144 -12 -158 2 -7 7 -12 38 -12 71 0 49 3 60 18 64 18 4 18 6 0 71 -22 81 -23 140 -2 170 13 19 24 22 82 22 37 0 73 -4 79 -8z"/>
        <path d="M2740 394 c0 -31 23 -28 28 4 2 15 -2 22 -12 22 -11 0 -16 -9 -16 -26z"/>
    </g>
</svg>